<?xml version="1.0" encoding="UTF-8"?>
<svg version="1.1" xmlns="http://www.w3.org/2000/svg" width="500" height="500">
<path d="M0 0 C165 0 330 0 500 0 C500 165 500 330 500 500 C335 500 170 500 0 500 C0 335 0 170 0 0 Z " fill="#F0EEE6" transform="translate(0,0)"/>
<path d="M0 0 C2.74177636 0.87798456 5.23249356 0.88746444 8.0859375 0.66796875 C8.4159375 -0.32203125 8.7459375 -1.31203125 9.0859375 -2.33203125 C9.7459375 -2.33203125 10.4059375 -2.33203125 11.0859375 -2.33203125 C11.0859375 6.24796875 11.0859375 14.82796875 11.0859375 23.66796875 C10.0959375 23.66796875 9.1059375 23.66796875 8.0859375 23.66796875 C7.99957031 23.02730469 7.91320312 22.38664062 7.82421875 21.7265625 C6.61127196 14.25970658 4.63673295 9.22784454 -1.6015625 4.73046875 C-7.29486088 2.90431644 -12.51250348 2.61128278 -18.0390625 5.04296875 C-20.52087271 8.51750304 -20.56208072 11.00814174 -20.328125 15.20703125 C-19.21496079 21.82300719 -14.00053018 25.84209878 -8.9140625 29.66796875 C-6.75283846 31.15602465 -4.58711153 32.63496589 -2.4140625 34.10546875 C9.25215332 42.00040038 9.25215332 42.00040038 12.0859375 47.66796875 C12.24449219 46.96671875 12.40304688 46.26546875 12.56640625 45.54296875 C14.48843091 37.72744306 16.82756443 31.77118119 22.7109375 26.16796875 C27.53063664 24.02588024 31.89142508 23.85268653 37.0859375 24.66796875 C39.12643172 25.93846515 41.13611215 27.26228071 43.0859375 28.66796875 C47.74577399 28.66796875 51.26665185 26.7177109 55.25390625 24.5078125 C57.0859375 23.66796875 57.0859375 23.66796875 60.0859375 23.66796875 C60.5809375 27.62796875 60.5809375 27.62796875 61.0859375 31.66796875 C61.8284375 30.71921875 62.5709375 29.77046875 63.3359375 28.79296875 C66.93633532 24.52695116 66.93633532 24.52695116 70.0859375 23.66796875 C73.40336533 23.87107658 75.38305793 24.08223578 77.9609375 26.23046875 C78.3321875 26.70484375 78.7034375 27.17921875 79.0859375 27.66796875 C81.91596646 26.76750499 84.62849733 25.9032237 87.2734375 24.54296875 C89.0859375 23.66796875 89.0859375 23.66796875 92.0859375 23.66796875 C92.09402435 24.26043396 92.10211121 24.85289917 92.11044312 25.46331787 C92.1964771 31.62778245 92.29598034 37.79192505 92.40332031 43.95605469 C92.44161167 46.25678095 92.47646424 48.5575671 92.5078125 50.85839844 C92.5534592 54.16493137 92.61145497 57.47105187 92.671875 60.77734375 C92.68342621 61.80664001 92.69497742 62.83593628 92.70687866 63.89642334 C92.72674835 64.85711731 92.74661804 65.81781128 92.76708984 66.80761719 C92.78041351 67.65144958 92.79373718 68.49528198 92.8074646 69.36468506 C93.11309763 71.89261355 93.71872691 73.52651663 95.0859375 75.66796875 C97.13594621 76.47325764 97.13594621 76.47325764 99.0859375 76.66796875 C99.0859375 77.32796875 99.0859375 77.98796875 99.0859375 78.66796875 C91.1659375 78.66796875 83.2459375 78.66796875 75.0859375 78.66796875 C75.0859375 78.00796875 75.0859375 77.34796875 75.0859375 76.66796875 C76.0553125 76.23484375 77.0246875 75.80171875 78.0234375 75.35546875 C81.36325515 73.96648265 81.36325515 73.96648265 82.0859375 70.66796875 C82.17100829 67.93637315 82.20185315 65.23105432 82.18359375 62.5 C82.1821788 61.70518723 82.18076385 60.91037445 82.17930603 60.09147644 C82.17371128 57.5544355 82.16115978 55.017483 82.1484375 52.48046875 C82.14342182 50.7597669 82.13885903 49.03906367 82.13476562 47.31835938 C82.12374357 43.10152845 82.10648256 38.88476359 82.0859375 34.66796875 C80.19414547 33.98648645 80.19414547 33.98648645 78.0859375 33.66796875 C77.0959375 34.65796875 77.0959375 34.65796875 76.0859375 35.66796875 C73.6484375 35.98046875 73.6484375 35.98046875 71.0859375 35.66796875 C70.0859375 34.66796875 69.0859375 33.66796875 68.0859375 32.66796875 C65.42639698 32.75107939 64.38203726 33.3792681 62.48364258 35.23022461 C60.53421534 38.63023002 60.67493172 41.79790992 60.72265625 45.609375 C60.72215775 46.37346176 60.72165924 47.13754852 60.72114563 47.92478943 C60.72348113 49.53606779 60.73317879 51.14735014 60.74975586 52.75854492 C60.77338922 55.22542893 60.77030814 57.69123435 60.76367188 60.15820312 C60.76924769 61.72526686 60.77635696 63.29232605 60.78515625 64.859375 C60.78424484 65.5969252 60.78333344 66.3344754 60.78239441 67.09437561 C60.83409369 70.82368808 60.96412062 72.48524343 63.0859375 75.66796875 C65.64876492 76.39762241 65.64876492 76.39762241 68.0859375 76.66796875 C68.0859375 77.32796875 68.0859375 77.98796875 68.0859375 78.66796875 C59.8359375 78.66796875 51.5859375 78.66796875 43.0859375 78.66796875 C43.0859375 78.00796875 43.0859375 77.34796875 43.0859375 76.66796875 C45.0659375 75.67796875 47.0459375 74.68796875 49.0859375 73.66796875 C49.0859375 60.46796875 49.0859375 47.26796875 49.0859375 33.66796875 C47.6009375 33.17296875 47.6009375 33.17296875 46.0859375 32.66796875 C46.1271875 33.61671875 46.1684375 34.56546875 46.2109375 35.54296875 C46.0859375 38.66796875 46.0859375 38.66796875 44.0859375 40.66796875 C40.5859375 40.91796875 40.5859375 40.91796875 37.0859375 40.66796875 C34.68768803 38.26971928 34.77157546 37.39461657 34.5234375 34.10546875 C34.50144447 31.08749087 34.50144447 31.08749087 33.0859375 28.66796875 C30.71371794 28.16661676 30.71371794 28.16661676 28.0859375 28.66796875 C22.11931624 34.80032949 22.83518318 41.42329389 22.93359375 49.4140625 C23.14037499 57.23244392 24.35524317 63.93727442 30.0859375 69.66796875 C35.57842465 70.24477501 35.57842465 70.24477501 40.3984375 68.10546875 C42.50062257 65.06897921 43.76016839 62.11496843 45.0859375 58.66796875 C45.7459375 58.66796875 46.4059375 58.66796875 47.0859375 58.66796875 C46.59728022 66.16071372 43.67703147 72.46720561 38.9609375 78.29296875 C34.34168439 80.50217676 30.08459601 80.72215511 25.0859375 79.66796875 C20.58696025 77.00486447 17.00491905 73.59430944 15.0859375 68.66796875 C15.0859375 67.34796875 15.0859375 66.02796875 15.0859375 64.66796875 C14.4259375 64.66796875 13.7659375 64.66796875 13.0859375 64.66796875 C13.0446875 65.34859375 13.0034375 66.02921875 12.9609375 66.73046875 C11.42718736 71.87948709 7.79808428 75.41517842 3.5234375 78.54296875 C-1.8611314 81.0281544 -8.28221553 81.8399719 -13.99609375 79.99609375 C-15.34039909 79.45117457 -16.68291257 78.90181026 -18.0234375 78.34765625 C-20.77065114 77.36002159 -23.03989673 77.25737364 -25.9140625 77.66796875 C-26.5740625 78.65796875 -27.2340625 79.64796875 -27.9140625 80.66796875 C-28.5740625 80.66796875 -29.2340625 80.66796875 -29.9140625 80.66796875 C-29.9140625 71.75796875 -29.9140625 62.84796875 -29.9140625 53.66796875 C-28.9240625 53.66796875 -27.9340625 53.66796875 -26.9140625 53.66796875 C-26.81609375 54.32023437 -26.718125 54.9725 -26.6171875 55.64453125 C-25.23150651 63.74359773 -22.77701027 68.79166375 -15.9140625 73.66796875 C-12.22720127 75.51139937 -7.94708583 75.02363695 -3.9140625 74.66796875 C0.02210987 73.02789693 1.48220513 71.53904689 3.0859375 67.66796875 C3.96996509 62.66981275 3.86454197 58.0500163 1.0234375 53.73046875 C-3.25429237 48.68703544 -8.91170521 45.07403348 -14.26953125 41.2734375 C-27.95320204 31.56142852 -27.95320204 31.56142852 -29.9140625 24.66796875 C-30.84566241 17.23291422 -31.06936401 10.39495967 -26.4140625 4.21875 C-18.61048882 -3.84900716 -9.83625572 -3.67565345 0 0 Z " fill="#1E1AD3" transform="translate(151.9140625,156.33203125)"/>
<path d="M0 0 C3.73639216 1.24546405 4.18756513 2.63404953 6 6 C6.73605469 5.6390625 7.47210938 5.278125 8.23046875 4.90625 C9.20628906 4.4421875 10.18210938 3.978125 11.1875 3.5 C12.15042969 3.0359375 13.11335938 2.571875 14.10546875 2.09375 C17 1 17 1 22 1 C22.33 12.88 22.66 24.76 23 37 C24.98 34.69 26.96 32.38 29 30 C32.80354463 28.09822769 36.87676282 28.27166175 41 29 C46.00373242 31.82455247 49.28882387 35.54023737 51.42651367 40.90551758 C52.58832149 45.14866329 52.47026918 49.44228348 52.4375 53.8125 C52.4674707 55.21338867 52.4674707 55.21338867 52.49804688 56.64257812 C52.49245518 64.70020783 50.57527976 71.95345641 45.625 78.4375 C40.9570558 82.99430267 36.65839553 84.44189993 30.1875 84.5 C23.4843535 84.37928656 17.85338597 82.85338597 13 78 C12.87603129 75.85331715 12.8219928 73.70257613 12.79467773 71.55249023 C12.78477814 70.87934784 12.77487854 70.20620544 12.76467896 69.51266479 C12.73298162 67.27801075 12.70827426 65.04333542 12.68359375 62.80859375 C12.66303131 61.26302016 12.64203504 59.71745228 12.62062073 58.17189026 C12.56532663 54.09649268 12.51594987 50.02104375 12.46777344 45.94555664 C12.41761183 41.7898296 12.36189796 37.63417748 12.30664062 33.47851562 C12.19896936 25.3190737 12.09754448 17.15956924 12 9 C10.741875 9.12375 9.48375 9.2475 8.1875 9.375 C7.47980469 9.44460937 6.77210938 9.51421875 6.04296875 9.5859375 C3.70011858 9.92665391 3.70011858 9.92665391 1 12 C-2.0625 11.8125 -2.0625 11.8125 -5 11 C-7 8 -7 8 -6.8125 5.5 C-5.46632855 1.35793399 -4.49367252 0 0 0 Z " fill="#1A16D3" transform="translate(240,152)"/>
<path d="M0 0 C6.69306053 3.84567376 10.24088105 9.78058642 12.3671875 17.07421875 C13.94640745 27.5449709 12.97351658 37.62317495 6.71875 46.3828125 C2.74317105 51.2524627 -0.33574479 53.71934037 -6.75390625 54.41015625 C-17.93009987 54.54179575 -17.93009987 54.54179575 -22.6328125 50.07421875 C-30.55589513 41.59836292 -32.01624746 33.92158834 -31.91015625 22.65234375 C-31.26977762 14.39055754 -27.73879193 7.63916203 -21.6328125 2.07421875 C-15.65515474 -2.4454737 -6.90751086 -2.42890219 0 0 Z " fill="#1D19D3" transform="translate(365.6328125,181.92578125)"/>
<path d="M0 0 C0.01030746 0.94547195 0.02061493 1.89094391 0.03123474 2.86506653 C0.12891514 11.76746372 0.23164417 20.66979019 0.33933926 29.57207203 C0.3945458 34.14901633 0.44796222 38.72596705 0.49731445 43.30297852 C0.5449914 47.71855456 0.5973355 52.13405268 0.65294075 56.54953575 C0.67334919 58.23564404 0.69206478 59.92177369 0.70907402 61.60791969 C0.73315145 63.96631221 0.76320145 66.3245576 0.79467773 68.68286133 C0.80331093 69.73266678 0.80331093 69.73266678 0.81211853 70.80368042 C0.85779654 73.80693883 1.04208292 76.12624875 2 79 C3.98 79.33 5.96 79.66 8 80 C11.24891122 75.66437107 11.3992089 71.86266307 11.29296875 66.63671875 C11.28660149 65.44874443 11.28660149 65.44874443 11.28010559 64.23677063 C11.26338163 61.71999373 11.22574225 59.20403276 11.1875 56.6875 C11.17244499 54.97592307 11.15875801 53.26433351 11.14648438 51.55273438 C11.11349885 47.36817767 11.06176098 43.18422693 11 39 C8.69 38.34 6.38 37.68 4 37 C4 36.34 4 35.68 4 35 C6.26727333 33.82592979 8.53834624 32.66060261 10.8125 31.5 C11.45509766 31.16613281 12.09769531 30.83226562 12.75976562 30.48828125 C15.69547699 28.99760916 17.66126517 28 21 28 C21.01213028 28.88869781 21.01213028 28.88869781 21.02450562 29.79534912 C21.1105396 35.9598137 21.21004284 42.1239563 21.31738281 48.28808594 C21.35567417 50.5888122 21.39052674 52.88959835 21.421875 55.19042969 C21.4675217 58.49696262 21.52551747 61.80308312 21.5859375 65.109375 C21.59748871 66.13867126 21.60903992 67.16796753 21.62094116 68.22845459 C21.64081085 69.18914856 21.66068054 70.14984253 21.68115234 71.13964844 C21.69447601 71.98348083 21.70779968 72.82731323 21.7215271 73.69671631 C22.02716013 76.2246448 22.63278941 77.85854788 24 80 C26.05000871 80.80528889 26.05000871 80.80528889 28 81 C28 81.66 28 82.32 28 83 C13.15 83 -1.7 83 -17 83 C-17 82.34 -17 81.68 -17 81 C-14.03 80.505 -14.03 80.505 -11 80 C-9.88749484 76.66248451 -9.86629472 74.14935764 -9.85473633 70.63256836 C-9.84835648 69.31788071 -9.84197662 68.00319305 -9.83540344 66.64866638 C-9.83387511 65.21239254 -9.83276097 63.77611822 -9.83203125 62.33984375 C-9.8288185 60.86918607 -9.82545441 59.39852871 -9.82194519 57.9278717 C-9.81595887 54.84700784 -9.81410488 51.76617201 -9.81469727 48.68530273 C-9.81479909 44.73173492 -9.80112381 40.77834588 -9.78392506 36.82482052 C-9.77282663 33.78885567 -9.77077736 30.75293443 -9.77130699 27.71695137 C-9.7701245 26.2588597 -9.76568771 24.80076699 -9.75797462 23.34269524 C-9.74821475 21.30783258 -9.75230661 19.27291757 -9.75708008 17.23803711 C-9.75565506 16.07904404 -9.75423004 14.92005096 -9.75276184 13.72593689 C-9.72000747 10.85309592 -9.72000747 10.85309592 -12 9 C-14.58354218 8.83312552 -14.58354218 8.83312552 -17 9 C-16 6 -16 6 -13.1640625 4.39453125 C-11.99617188 3.87246094 -10.82828125 3.35039062 -9.625 2.8125 C-8.46226562 2.28269531 -7.29953125 1.75289062 -6.1015625 1.20703125 C-3 0 -3 0 0 0 Z " fill="#1814D3" transform="translate(308,152)"/>
<path d="M0 0 C3.94831424 0.80577842 6.60458715 2.49236598 9.0625 5.625 C12.85354211 12.16499682 12.54406155 18.64814349 12.5 26.0625 C12.5299707 27.84624023 12.5299707 27.84624023 12.56054688 29.66601562 C12.55659931 36.77558843 12.00822416 41.63863007 8.0625 47.625 C4.54996854 49.96668764 3.19780644 50.12123677 -0.9375 49.625 C-5.64333826 46.88904752 -7.24209385 43.71121845 -8.9375 38.625 C-9.81972202 32.91185191 -10.12010149 27.33784329 -10.125 21.5625 C-10.13724609 20.79873047 -10.14949219 20.03496094 -10.16210938 19.24804688 C-10.17802698 13.04548839 -9.56871332 7.75463962 -5.6875 2.6875 C-2.9375 0.625 -2.9375 0.625 0 0 Z " fill="#EDEBE6" transform="translate(354.9375,183.375)"/>
<path d="M0 0 C3.99660725 2.6341275 5.33552772 5.27606927 6.3125 9.8125 C7.83024953 20.49456573 9.37237466 34.87867548 2.8125 44.0625 C-0.82507861 46.56838749 -2.66637443 46.77386171 -7 46 C-9.875 43.5625 -9.875 43.5625 -12 41 C-12.33 40.67 -12.66 40.34 -13 40 C-13.29182855 35.38873946 -13.3141171 30.77464039 -13.35009766 26.1550293 C-13.36660568 24.60214192 -13.39382784 23.04932891 -13.43212891 21.49682617 C-13.48717652 19.25399497 -13.50881608 17.012949 -13.5234375 14.76953125 C-13.54610687 14.0818013 -13.56877625 13.39407135 -13.59213257 12.6855011 C-13.56773403 7.06103557 -11.82925523 4.80653503 -8 1 C-5.11138291 -0.44430855 -3.20352299 -0.37688506 0 0 Z " fill="#EBE9E6" transform="translate(275,187)"/>
<path d="M0 0 C3.76441584 1.25480528 4.17319457 2.59549897 6 6 C8.06700655 7.32793606 8.06700655 7.32793606 10 8 C10 8.33 10 8.66 10 9 C7.67174447 9.69847666 5.3450525 10.36301391 3 11 C1.4221875 11.433125 1.4221875 11.433125 -0.1875 11.875 C-3 12 -3 12 -5.4375 10.375 C-7 8 -7 8 -6.9375 5.4375 C-5.38116643 1.39103273 -4.50607706 0 0 0 Z " fill="#2A26D4" transform="translate(240,152)"/>
<path d="M0 0 C2.9375 0.875 2.9375 0.875 4.9375 3.875 C4.75 6.9375 4.75 6.9375 3.9375 9.875 C0.9375 11.875 0.9375 11.875 -2.125 11.6875 C-5.0625 10.875 -5.0625 10.875 -7.0625 7.875 C-6.8550099 5.10846538 -6.35971306 3.34428377 -4.875 1 C-3.0625 -0.125 -3.0625 -0.125 0 0 Z " fill="#2521D4" transform="translate(325.0625,152.125)"/>
<path d="M0 0 C0.66 0 1.32 0 2 0 C1.67 2.31 1.34 4.62 1 7 C0.01 7 -0.98 7 -2 7 C-1.34 4.69 -0.68 2.38 0 0 Z " fill="#3935D6" transform="translate(197,215)"/>
</svg>
